<?xml version="1.0" encoding="utf-8"?>
<!-- Generator: Adobe Illustrator 25.4.1, SVG Export Plug-In . SVG Version: 6.00 Build 0)  -->
<svg version="1.1" id="Layer_1" xmlns="http://www.w3.org/2000/svg" xmlns:xlink="http://www.w3.org/1999/xlink" x="0px" y="0px"
	 viewBox="0 0 1024 1024" style="enable-background:new 0 0 1024 1024;" xml:space="preserve">
<style type="text/css">
	.st0{fill:#FFDD12;}
	.st1{fill:none;stroke:#1D1D1B;stroke-width:0.5;}
	.st2{fill:#FFDD12;stroke:#1D1D1B;stroke-width:0.5;}
	.st3{fill:none;stroke:#E20613;stroke-width:0.5;}
	.st4{fill:#1D1D1B;}
</style>
<g>
	<polygon class="st0" points="389.6,497.6 387.2,455.5 423.6,357 543.9,357 634.1,378.9 751.7,357 783.3,407.1 872,421 906.1,481 
		906.1,556.7 952,563.6 888,713.6 773.4,803 616.8,842.6 500.9,842.6 	"/>
	<polyline class="st1" points="498.1,549.8 720.1,563.6 757.8,549.8 942.3,563.6 	"/>
	<polygon class="st2" points="543.9,552.6 543.9,206.4 488,71.5 428.5,203.9 423.6,497.6 442.4,562.5 	"/>
	<path class="st2" d="M297.5,407c0,33.9-27.5,61.4-61.4,61.4c-33.9,0-61.4-27.5-61.4-61.4c0-33.9,27.5-61.4,61.4-61.4
		C270,345.6,297.5,373.1,297.5,407z"/>
	<path class="st2" d="M349.7,497.6c0,52.7-42.7,95.4-95.4,95.4c-52.7,0-95.4-42.7-95.4-95.4s42.7-95.4,95.4-95.4
		C307,402.2,349.7,444.9,349.7,497.6z"/>
	<path class="st2" d="M231.2,520.7c0,39.9-32.4,72.3-72.3,72.3c-39.9,0-72.3-32.4-72.3-72.3c0-39.9,32.4-72.3,72.3-72.3
		C198.9,448.3,231.2,480.7,231.2,520.7z"/>
	<path class="st1" d="M826,729.3c0,0-50-57.5-56.1-64.8c-6.1-7.3-34-26.7-76.6-28c-42.5-1.2-183.4-9.4-183.4-9.4"/>
	<path class="st2" d="M643.6,615.5c0,0,23.3-4.1,24.4,0c1.1,4.1,12,51.5,12,51.5h-28l-8.5-12.2V615.5z"/>
	<polyline class="st1" points="757.8,549.8 756.6,654.2 888,662.2 	"/>
	<line class="st1" x1="720.1" y1="563.6" x2="720.1" y2="639.9"/>
	<path class="st1" d="M602.8,556.3c0,0,9.2-49.8,50.6-49.8s50.7,42.7,48.4,56"/>
	<polyline class="st1" points="691.9,526.5 691.9,479.8 702.1,468.4 708,433.6 751.7,357 783.3,407.1 805.2,441.8 805.2,482.2 
		822.3,491.9 822.3,554.6 	"/>
	<polyline class="st1" points="783.3,407.1 872,421 906.1,481 906.1,560.9 	"/>
	<line class="st1" x1="805.2" y1="468.4" x2="906.1" y2="481"/>
	<path class="st1" d="M634.1,510.8c0,0-2.7-30.2-23.3-36.1c-20.7-5.9-63.2-1.9-66.8-6.3"/>
	<path class="st3" d="M428.5,203.9"/>
	<path class="st3" d="M428.5,203.9"/>
	<polyline class="st1" points="428.5,203.9 456.4,185.7 483.8,176 512.7,184.5 543.9,206.4 	"/>
	<line class="st1" x1="456.4" y1="185.7" x2="458.2" y2="510.8"/>
	<line class="st1" x1="512.7" y1="184.5" x2="512.7" y2="550.7"/>
	<polyline class="st1" points="427.1,286.6 457.3,274.3 512.7,274.3 543.9,286.6 	"/>
	<polyline class="st1" points="427.1,373.8 457.3,361.4 512.7,361.4 543.9,373.8 	"/>
	<polyline class="st1" points="427.1,462 457.3,449.7 512.7,449.7 543.9,462 	"/>
	<polyline class="st1" points="543.9,357 634.1,378.9 751.7,357 	"/>
	<polyline class="st1" points="543.9,433.6 612,444.6 708,433.6 	"/>
	<polyline class="st1" points="634.1,378.9 612,444.6 610.8,474.7 	"/>
	<path class="st4" d="M437.7,226.8c0,0,2-5.4,4.5-5.4c2.6,0,4.8,5.4,4.8,5.4v28.6c0,0-2.6,3.7-4.7,4c-2.1,0.3-4.7-4-4.7-4V226.8z"/>
	<path class="st4" d="M470.6,216.3c0,0,2-5.4,4.5-5.4c2.6,0,4.8,5.4,4.8,5.4V245c0,0-2.6,3.7-4.7,4c-2.1,0.3-4.7-4-4.7-4V216.3z"/>
	<path class="st4" d="M749.2,401.8c0,0,2.6-6.2,6-6.2c3.4,0,6.4,6.2,6.4,6.2v32.9c0,0-3.4,4.2-6.2,4.6c-2.8,0.3-6.2-4.6-6.2-4.6
		V401.8z"/>
	<path class="st4" d="M745.6,465.6c0,0,3.8-9.8,8.6-9.8c4.8,0,9.2,9.8,9.2,9.8v51.8c0,0-4.9,6.7-8.9,7.2c-4.1,0.5-8.9-7.2-8.9-7.2
		V465.6z"/>
	<path class="st4" d="M491.5,216.3c0,0,2-5.4,4.5-5.4c2.6,0,4.8,5.4,4.8,5.4V245c0,0-2.6,3.7-4.7,4c-2.1,0.3-4.7-4-4.7-4V216.3z"/>
	<path class="st4" d="M522.7,226.8c0,0,2-5.4,4.5-5.4s4.8,5.4,4.8,5.4v28.6c0,0-2.6,3.7-4.7,4c-2.1,0.3-4.7-4-4.7-4V226.8z"/>
	<path class="st4" d="M479.1,144.9c0,0,3.3-5.4,7.5-5.4c4.3,0,8,5.4,8,5.4v28.6c0,0-4.3,3.7-7.8,4c-3.5,0.3-7.8-4-7.8-4V144.9z"/>
	<path class="st4" d="M481.3,311.9c0,0,2-2.3,4.5-2.3c2.6,0,4.8,2.3,4.8,2.3v12.4c0,0-2.6,1.6-4.7,1.7c-2.1,0.1-4.7-1.7-4.7-1.7
		V311.9z"/>
	<path class="st4" d="M732.3,420.9c0,0,2-2.3,4.5-2.3c2.6,0,4.8,2.3,4.8,2.3v12.4c0,0-2.6,1.6-4.7,1.7c-2.1,0.1-4.7-1.7-4.7-1.7
		V420.9z"/>
	<path class="st4" d="M768.8,426.3c0,0,2-2.3,4.5-2.3c2.6,0,4.8,2.3,4.8,2.3v12.4c0,0-2.6,1.6-4.7,1.7c-2.1,0.1-4.7-1.7-4.7-1.7
		V426.3z"/>
	<path class="st4" d="M480.8,482.2c0,0,2-2.3,4.5-2.3c2.6,0,4.8,2.3,4.8,2.3v12.4c0,0-2.6,1.6-4.7,1.7c-2.1,0.1-4.7-1.7-4.7-1.7
		V482.2z"/>
	<polygon class="st4" points="447,193.9 424.9,203.9 424.9,163.6 447,163.6 	"/>
	<polygon class="st4" points="545.7,202.3 527.4,198.2 527.4,163.6 545.7,163.6 	"/>
	<path class="st4" d="M760.9,326.5h-4.8v-6.9c0,0-2.1-6.2-4.5-6.2c-2.4,0-4.2,6.2-4.2,6.2v6.9h-4.3c0,0-3.3,2.1-3.3,4.5
		c0,2.4,3.3,4.2,3.3,4.2h4.3v17.3c0,0,2.4,4.9,4.3,4.6c2-0.3,4.3-4.6,4.3-4.6v-17.3h4.8c0,0,2.6-2.4,2.5-4.4
		C763.2,328.9,760.9,326.5,760.9,326.5z"/>
	<path class="st4" d="M496.4,39.1h-4.8v-6.9c0,0-2.1-6.2-4.5-6.2c-2.4,0-4.2,6.2-4.2,6.2v6.9h-4.3c0,0-3.3,2.1-3.3,4.5
		c0,2.4,3.3,4.2,3.3,4.2h4.3v17.3c0,0,2.4,4.9,4.3,4.6c2-0.3,4.3-4.6,4.3-4.6V47.8h4.8c0,0,2.6-2.4,2.5-4.4
		C498.7,41.5,496.4,39.1,496.4,39.1z"/>
	<path class="st4" d="M338.2,358.9h-4.8v-6.9c0,0-2.1-6.2-4.5-6.2s-4.2,6.2-4.2,6.2v6.9h-4.3c0,0-3.3,2.1-3.3,4.5
		c0,2.4,3.3,4.2,3.3,4.2h4.3v17.3c0,0,2.2,1.2,4.2,0.9c2-0.3,2.5-6.8,2.5-6.8l2-11.4h4.8c0,0,2.6-2.4,2.5-4.4
		C340.5,361.2,338.2,358.9,338.2,358.9z"/>
	<polyline class="st2" points="275.6,532.2 319.1,544.5 389.6,497.6 387.2,455.5 423.6,357 330,377.7 275.6,468.4 275.6,532.2 	"/>
	<line class="st1" x1="275.6" y1="468.4" x2="387.2" y2="455.5"/>
	<path class="st2" d="M423.6,357"/>
	<path class="st2" d="M512.7,603.3c0,58.4-47.3,105.7-105.7,105.7c-58.4,0-105.7-47.3-105.7-105.7c0-58.4,47.3-105.7,105.7-105.7
		C465.4,497.6,512.7,544.9,512.7,603.3z"/>
	<path class="st2" d="M358.8,615.5c0,45.9-37.3,83.2-83.2,83.2s-83.2-37.3-83.2-83.2c0-46,37.3-83.2,83.2-83.2
		S358.8,569.5,358.8,615.5z"/>
	<path class="st2" d="M602.8,807.3C602.8,909.9,519.6,993,417,993c-102.6,0-185.8-83.2-185.8-185.7S314.4,621.5,417,621.5
		C519.6,621.5,602.8,704.8,602.8,807.3z"/>
</g>
</svg>
