<svg width="350" height="251" viewBox="0 0 350 251" xmlns="http://www.w3.org/2000/svg" xmlns:xlink="http://www.w3.org/1999/xlink">
    <g id="logohintergrund-copy">
        <path id="Path" fill="#ffeec0" stroke="none" d="M 88.027969 122.969727 L 87.417847 112.267166 L 96.671364 87.226715 L 127.253761 87.226715 L 150.184189 92.794098 L 180.0802 87.226715 L 188.113464 99.963013 L 210.662582 103.496643 L 219.331406 118.74971 L 219.331406 137.993988 L 231 139.748077 L 214.730072 177.880737 L 185.596725 200.607819 L 145.786224 210.674835 L 116.322395 210.674835 Z"/>
        <path id="path1" fill="none" stroke="#1d1d1b" stroke-width="0.127109" stroke-linecap="round" stroke-linejoin="round" d="M 115.610588 136.239883 L 172.046906 139.748077 L 181.63092 136.239883 L 228.534088 139.748077"/>
        <path id="path2" fill="#ffeec0" stroke="#1d1d1b" stroke-width="0.127109" stroke-linecap="round" stroke-linejoin="round" d="M 127.253761 136.951691 L 127.253761 48.941544 L 113.042984 14.647568 L 97.91703 48.306 L 96.671364 122.969727 L 101.450661 139.468445 Z"/>
        <path id="path3" fill="#ffeec0" stroke="#1d1d1b" stroke-width="0.127109" stroke-linecap="round" stroke-linejoin="round" d="M 64.614517 99.937607 C 64.614517 108.555588 57.623528 115.54657 49.005547 115.54657 C 40.387566 115.54657 33.39658 108.555588 33.39658 99.937607 C 33.39658 91.319611 40.387566 84.328629 49.005547 84.328629 C 57.623528 84.328629 64.614517 91.319611 64.614517 99.937607 Z"/>
        <path id="path4" fill="#ffeec0" stroke="#1d1d1b" stroke-width="0.127109" stroke-linecap="round" stroke-linejoin="round" d="M 77.884682 122.969727 C 77.884682 136.367004 67.029579 147.222092 53.632309 147.222092 C 40.235039 147.222092 29.379938 136.367004 29.379938 122.969727 C 29.379938 109.572464 40.235039 98.717361 53.632309 98.717361 C 67.029579 98.717361 77.884682 109.572464 77.884682 122.969727 Z"/>
        <path id="path5" fill="#ffeec0" stroke="#1d1d1b" stroke-width="0.127109" stroke-linecap="round" stroke-linejoin="round" d="M 47.75988 128.842163 C 47.75988 138.985443 39.523228 147.222092 29.379938 147.222092 C 19.236654 147.222092 11 138.985443 11 128.842163 C 11 118.698868 19.236654 110.462219 29.379938 110.462219 C 39.548645 110.436783 47.75988 118.673447 47.75988 128.842163 Z"/>
        <path id="path6" fill="none" stroke="#1d1d1b" stroke-width="0.127109" stroke-linecap="round" stroke-linejoin="round" d="M 198.968567 181.871964 C 198.968567 181.871964 186.25769 167.254456 184.70697 165.398651 C 183.156219 163.542877 176.063568 158.611053 165.233871 158.280563 C 154.429626 157.975494 118.610352 155.890915 118.610352 155.890915"/>
        <path id="path7" fill="#ffeec0" stroke="#1d1d1b" stroke-width="0.127109" stroke-linecap="round" stroke-linejoin="round" d="M 152.599258 152.941986 C 152.599258 152.941986 158.522537 151.899704 158.80217 152.941986 C 159.081802 153.984283 161.852783 166.03421 161.852783 166.03421 L 154.734695 166.03421 L 152.573837 162.932739 L 152.573837 152.941986 Z"/>
        <path id="path8" fill="none" stroke="#1d1d1b" stroke-width="0.127109" stroke-linecap="round" stroke-linejoin="round" d="M 181.63092 136.239883 L 181.325851 162.780212 L 214.730072 164.813965"/>
        <path id="path9" fill="none" stroke="#1d1d1b" stroke-width="0.253607" stroke-linecap="round" stroke-linejoin="round" d="M 172.046906 139.748077 L 172.046906 159.144913"/>
        <path id="path10" fill="none" stroke="#1d1d1b" stroke-width="0.127109" stroke-linecap="round" stroke-linejoin="round" d="M 142.227173 137.892303 C 142.227173 137.892303 144.565979 125.232262 155.090607 125.232262 C 165.615204 125.232262 167.979431 136.087372 167.39473 139.468445"/>
        <path id="path11" fill="none" stroke="#1d1d1b" stroke-width="0.127109" stroke-linecap="round" stroke-linejoin="round" d="M 164.877975 130.31662 L 164.877975 118.444641 L 167.470993 115.54657 L 168.970886 106.699783 L 180.0802 87.226715 L 188.113464 99.963013 L 193.680847 108.784378 L 193.680847 119.054779 L 198.027954 121.520691 L 198.027954 137.460129"/>
        <path id="path12" fill="none" stroke="#1d1d1b" stroke-width="0.127109" stroke-linecap="round" stroke-linejoin="round" d="M 188.113464 99.963013 L 210.662582 103.496643 L 219.331406 118.74971 L 219.331406 139.061707"/>
        <path id="path13" fill="none" stroke="#1d1d1b" stroke-width="0.127109" stroke-linecap="round" stroke-linejoin="round" d="M 193.680847 115.54657 L 219.331406 118.74971"/>
        <path id="path14" fill="none" stroke="#1d1d1b" stroke-width="0.127109" stroke-linecap="round" stroke-linejoin="round" d="M 150.184189 126.325394 C 150.184189 126.325394 149.497818 118.648026 144.26091 117.148148 C 138.998611 115.648254 128.194351 116.665131 127.279175 115.54657"/>
        <path id="path15" fill="none" stroke="#1d1d1b" stroke-width="0.127109" stroke-linecap="round" stroke-linejoin="round" d="M 97.91703 48.306 L 105.009705 43.67923 L 111.975266 41.213318 L 119.322166 43.374161 L 127.253761 48.941544"/>
        <path id="path16" fill="none" stroke="#1d1d1b" stroke-width="0.127109" stroke-linecap="round" stroke-linejoin="round" d="M 105.009705 43.67923 L 105.4673 126.325394"/>
        <path id="path17" fill="none" stroke="#1d1d1b" stroke-width="0.253607" stroke-linecap="round" stroke-linejoin="round" d="M 119.322166 43.374161 L 119.322166 136.468689"/>
        <path id="path18" fill="none" stroke="#1d1d1b" stroke-width="0.127109" stroke-linecap="round" stroke-linejoin="round" d="M 97.561127 69.329788 L 105.238503 66.202911 L 119.322166 66.202911 L 127.253761 69.329788"/>
        <path id="path19" fill="none" stroke="#1d1d1b" stroke-width="0.127109" stroke-linecap="round" stroke-linejoin="round" d="M 97.561127 91.497574 L 105.238503 88.345276 L 119.322166 88.345276 L 127.253761 91.497574"/>
        <path id="path20" fill="none" stroke="#1d1d1b" stroke-width="0.127109" stroke-linecap="round" stroke-linejoin="round" d="M 97.561127 113.919571 L 105.238503 110.792694 L 119.322166 110.792694 L 127.253761 113.919571"/>
        <path id="path21" fill="none" stroke="#1d1d1b" stroke-width="0.127109" stroke-linecap="round" stroke-linejoin="round" d="M 127.253761 87.226715 L 150.184189 92.794098 L 180.0802 87.226715"/>
        <path id="path22" fill="none" stroke="#1d1d1b" stroke-width="0.127109" stroke-linecap="round" stroke-linejoin="round" d="M 127.253761 106.699783 L 144.565979 109.496185 L 168.970886 106.699783"/>
        <path id="path23" fill="none" stroke="#1d1d1b" stroke-width="0.127109" stroke-linecap="round" stroke-linejoin="round" d="M 150.184189 92.794098 L 144.565979 109.496185 L 144.26091 117.148148"/>
        <path id="path24" fill="#1d1d1b" stroke="none" d="M 100.255836 54.127563 C 100.255836 54.127563 100.764275 52.754807 101.399818 52.754807 C 102.060776 52.754807 102.620064 54.127563 102.620064 54.127563 L 102.620064 61.398209 C 102.620064 61.398209 101.959091 62.338791 101.425232 62.41507 C 100.89138 62.491333 100.230415 61.398209 100.230415 61.398209 L 100.230415 54.127563 Z"/>
        <path id="path25" fill="#1d1d1b" stroke="none" d="M 108.619598 51.458282 C 108.619598 51.458282 109.128036 50.08551 109.76358 50.08551 C 110.424545 50.08551 110.983818 51.458282 110.983818 51.458282 L 110.983818 58.754333 C 110.983818 58.754333 110.322853 59.694946 109.789001 59.77121 C 109.255142 59.847473 108.594177 58.754333 108.594177 58.754333 L 108.594177 51.458282 Z"/>
        <path id="path26" fill="#1d1d1b" stroke="none" d="M 179.444656 98.615662 C 179.444656 98.615662 180.105606 97.03952 180.969955 97.03952 C 181.83429 97.03952 182.596939 98.615662 182.596939 98.615662 L 182.596939 106.979431 C 182.596939 106.979431 181.732605 108.04715 181.020813 108.148834 C 180.30899 108.225098 179.444656 106.979431 179.444656 106.979431 L 179.444656 98.615662 Z"/>
        <path id="path27" fill="#1d1d1b" stroke="none" d="M 178.529465 114.834747 C 178.529465 114.834747 179.495499 112.34343 180.715744 112.34343 C 181.935989 112.34343 183.05455 114.834747 183.05455 114.834747 L 183.05455 128.003235 C 183.05455 128.003235 181.808868 129.706482 180.792007 129.833588 C 179.74971 129.960709 178.529465 128.003235 178.529465 128.003235 L 178.529465 114.834747 Z"/>
        <path id="path28" fill="#1d1d1b" stroke="none" d="M 113.932747 51.458282 C 113.932747 51.458282 114.441185 50.08551 115.076729 50.08551 C 115.737694 50.08551 116.296967 51.458282 116.296967 51.458282 L 116.296967 58.754333 C 116.296967 58.754333 115.636009 59.694946 115.10215 59.77121 C 114.568291 59.847473 113.907326 58.754333 113.907326 58.754333 L 113.907326 51.458282 Z"/>
        <path id="path29" fill="#1d1d1b" stroke="none" d="M 121.864342 54.127563 C 121.864342 54.127563 122.37278 52.754807 123.008324 52.754807 C 123.643867 52.754807 124.228561 54.127563 124.228561 54.127563 L 124.228561 61.398209 C 124.228561 61.398209 123.567604 62.338791 123.033737 62.41507 C 122.499886 62.491333 121.838913 61.398209 121.838913 61.398209 L 121.838913 54.127563 Z"/>
        <path id="path30" fill="#1d1d1b" stroke="none" d="M 110.780449 33.307144 C 110.780449 33.307144 111.619362 31.934372 112.68708 31.934372 C 113.780212 31.934372 114.720825 33.307144 114.720825 33.307144 L 114.720825 40.577774 C 114.720825 40.577774 113.627686 41.518372 112.737923 41.594635 C 111.84816 41.670898 110.755028 40.577774 110.755028 40.577774 L 110.755028 33.307144 Z"/>
        <path id="path31" fill="#1d1d1b" stroke="none" d="M 111.339722 75.761505 C 111.339722 75.761505 111.84816 75.176788 112.483704 75.176788 C 113.144669 75.176788 113.703957 75.761505 113.703957 75.761505 L 113.703957 78.913788 C 113.703957 78.913788 113.042984 79.320557 112.509125 79.345963 C 111.975266 79.371384 111.314308 78.913788 111.314308 78.913788 L 111.314308 75.761505 Z"/>
        <path id="path32" fill="#1d1d1b" stroke="none" d="M 175.148361 103.471237 C 175.148361 103.471237 175.656799 102.88652 176.292343 102.88652 C 176.953323 102.88652 177.512589 103.471237 177.512589 103.471237 L 177.512589 106.62352 C 177.512589 106.62352 176.851624 107.030289 176.31778 107.055695 C 175.783905 107.081116 175.122955 106.62352 175.122955 106.62352 L 175.122955 103.471237 Z"/>
        <path id="path33" fill="#1d1d1b" stroke="none" d="M 184.427307 104.843994 C 184.427307 104.843994 184.935745 104.259308 185.571289 104.259308 C 186.232269 104.259308 186.791534 104.843994 186.791534 104.843994 L 186.791534 107.996307 C 186.791534 107.996307 186.130569 108.403046 185.596725 108.428482 C 185.062851 108.453888 184.401901 107.996307 184.401901 107.996307 L 184.401901 104.843994 Z"/>
        <path id="path34" fill="#1d1d1b" stroke="none" d="M 111.212616 119.054779 C 111.212616 119.054779 111.721054 118.470078 112.356598 118.470078 C 113.017563 118.470078 113.576843 119.054779 113.576843 119.054779 L 113.576843 122.207062 C 113.576843 122.207062 112.915878 122.613831 112.382019 122.639236 C 111.84816 122.664673 111.187202 122.207062 111.187202 122.207062 L 111.187202 119.054779 Z"/>
        <path id="path35" fill="#1d1d1b" stroke="none" d="M 102.620064 45.763809 L 97.001846 48.306 L 97.001846 38.061005 L 102.620064 38.061005 Z"/>
        <path id="path36" fill="#1d1d1b" stroke="none" d="M 127.711349 47.899231 L 123.059174 46.856949 L 123.059174 38.061005 L 127.711349 38.061005 Z"/>
        <path id="path37" fill="#1d1d1b" stroke="none" d="M 182.419006 79.473083 L 181.198746 79.473083 L 181.198746 77.718964 C 181.198746 77.718964 180.664902 76.142838 180.054764 76.142838 C 179.444656 76.142838 178.987061 77.718964 178.987061 77.718964 L 178.987061 79.473083 L 177.893921 79.473083 C 177.893921 79.473083 177.055008 80.006927 177.055008 80.61705 C 177.055008 81.227188 177.893921 81.684769 177.893921 81.684769 L 178.987061 81.684769 L 178.987061 86.082733 C 178.987061 86.082733 179.597183 87.328415 180.0802 87.252136 C 180.588638 87.175873 181.173325 86.082733 181.173325 86.082733 L 181.173325 81.684769 L 182.39357 81.684769 C 182.39357 81.684769 183.05455 81.074646 183.029114 80.566208 C 183.003708 80.083206 182.419006 79.473083 182.419006 79.473083 Z"/>
        <path id="path38" fill="#1d1d1b" stroke="none" d="M 115.178413 6.410904 L 113.958168 6.410904 L 113.958168 4.656815 C 113.958168 4.656815 113.424316 3.080658 112.814194 3.080658 C 112.204071 3.080658 111.746475 4.656815 111.746475 4.656815 L 111.746475 6.410904 L 110.653343 6.410904 C 110.653343 6.410904 109.814415 6.944763 109.814415 7.554886 C 109.814415 8.165009 110.653343 8.622604 110.653343 8.622604 L 111.746475 8.622604 L 111.746475 13.020569 C 111.746475 13.020569 112.356598 14.266235 112.839615 14.189972 C 113.348053 14.113708 113.932747 13.020569 113.932747 13.020569 L 113.932747 8.622604 L 115.152992 8.622604 C 115.152992 8.622604 115.813957 8.012482 115.788536 7.504059 C 115.763115 7.021027 115.178413 6.410904 115.178413 6.410904 Z"/>
        <path id="path39" fill="#1d1d1b" stroke="none" d="M 74.961174 87.709732 L 73.740929 87.709732 L 73.740929 85.955627 C 73.740929 85.955627 73.207069 84.379471 72.596947 84.379471 C 71.986824 84.379471 71.529236 85.955627 71.529236 85.955627 L 71.529236 87.709732 L 70.436096 87.709732 C 70.436096 87.709732 69.597183 88.243591 69.597183 88.853714 C 69.597183 89.463837 70.436096 89.921417 70.436096 89.921417 L 71.529236 89.921417 L 71.529236 94.319397 C 71.529236 94.319397 72.088516 94.624451 72.596947 94.548187 C 73.105385 94.471924 73.232491 92.819504 73.232491 92.819504 L 73.740929 89.921417 L 74.961174 89.921417 C 74.961174 89.921417 75.622139 89.31131 75.596725 88.802872 C 75.545876 88.294434 74.961174 87.709732 74.961174 87.709732 Z"/>
        <path id="path40" fill="#ffeec0" stroke="#1d1d1b" stroke-width="0.127109" stroke-linecap="round" stroke-linejoin="round" d="M 59.047146 131.765656 L 70.105621 134.892532 L 88.027969 122.969727 L 87.417847 112.267166 L 96.671364 87.226715 L 72.876587 92.489029 L 59.047146 115.54657 L 59.047146 131.765656"/>
        <path id="path41" fill="none" stroke="#1d1d1b" stroke-width="0.127109" stroke-linecap="round" stroke-linejoin="round" d="M 59.047146 115.54657 L 87.417847 112.267166"/>
        <path id="path42" fill="#ffeec0" stroke="#1d1d1b" stroke-width="0.127109" stroke-linecap="round" stroke-linejoin="round" d="M 119.322166 149.84053 C 119.322166 164.686859 107.297661 176.711349 92.451355 176.711349 C 77.605042 176.711349 65.580536 164.686859 65.580536 149.84053 C 65.580536 134.994232 77.605042 122.969727 92.451355 122.969727 C 107.297661 122.969727 119.322166 134.994232 119.322166 149.84053 Z"/>
        <path id="path43" fill="#ffeec0" stroke="#1d1d1b" stroke-width="0.127109" stroke-linecap="round" stroke-linejoin="round" d="M 80.198059 152.941986 C 80.198059 164.610596 70.715736 174.092911 59.047146 174.092911 C 47.378551 174.092911 37.896233 164.610596 37.896233 152.941986 C 37.896233 141.247986 47.378551 131.791077 59.047146 131.791077 C 70.715736 131.791077 80.198059 141.247986 80.198059 152.941986 Z"/>
        <path id="path44" fill="#ffeec0" stroke="#1d1d1b" stroke-width="0.127109" stroke-linecap="round" stroke-linejoin="round" d="M 142.227173 201.700943 C 142.227173 227.783691 121.076256 248.90918 94.99353 248.90918 C 68.910789 248.90918 47.75988 227.758255 47.75988 201.700943 C 47.75988 175.643631 68.910789 154.4673 94.99353 154.4673 C 121.076256 154.4673 142.227173 175.643631 142.227173 201.700943 Z"/>
        <path id="Path-copy-2" fill="#ffeec0" stroke="none" d="M 88.027969 122.969727 L 87.417847 112.267166 L 96.671364 87.226715 L 127.253761 87.226715 L 150.184189 92.794098 L 180.0802 87.226715 L 188.113464 99.963013 L 210.662582 103.496643 L 219.331406 118.74971 L 219.331406 137.993988 L 231 139.748077 L 214.730072 177.880737 L 185.596725 200.607819 L 145.786224 210.674835 L 116.322395 210.674835 Z"/>
        <path id="Path-copy-1" fill="#ffeec0" stroke="#1d1d1b" stroke-width="0.127109" stroke-linecap="round" stroke-linejoin="round" d="M 47.75988 128.842163 C 47.75988 138.985443 39.523228 147.222092 29.379938 147.222092 C 19.236654 147.222092 11 138.985443 11 128.842163 C 11 118.698868 19.236654 110.462219 29.379938 110.462219 C 39.548645 110.436783 47.75988 118.673447 47.75988 128.842163 Z"/>
        <path id="Path-copy" fill="#ffeec0" stroke="#1d1d1b" stroke-width="0.127109" stroke-linecap="round" stroke-linejoin="round" d="M 142.227173 201.700943 C 142.227173 227.783691 121.076256 248.90918 94.99353 248.90918 C 68.910789 248.90918 47.75988 227.758255 47.75988 201.700943 C 47.75988 175.643631 68.910789 154.4673 94.99353 154.4673 C 121.076256 154.4673 142.227173 175.643631 142.227173 201.700943 Z"/>
        <path id="Path-copy-5" fill="#ffeec0" stroke="none" d="M 2.027966 156.969727 L 1.417845 146.267151 L 10.671368 121.226715 L 41.253761 121.226715 L 64.184189 126.79409 L 94.0802 121.226715 L 102.113472 133.963013 L 124.662582 137.496643 L 133.331406 152.74971 L 133.331406 171.993988 L 145 173.748077 L 128.730072 211.880737 L 99.596725 234.607819 L 59.786224 244.67482 L 30.322393 244.67482 Z"/>
        <path id="Path-copy-3" fill="#ffeec0" stroke="#1d1d1b" stroke-width="0.127109" stroke-linecap="round" stroke-linejoin="round" d="M 242.227173 200.700943 C 242.227173 226.783691 221.076263 247.90918 194.99353 247.90918 C 168.910797 247.90918 147.759872 226.758255 147.759872 200.700943 C 147.759872 174.643631 168.910797 153.4673 194.99353 153.4673 C 221.076263 153.4673 242.227173 174.643631 242.227173 200.700943 Z"/>
        <path id="Path-copy-12" fill="#ffeec0" stroke="none" d="M 99.027969 154.969727 L 98.417847 144.267151 L 107.671364 119.226715 L 138.253769 119.226715 L 161.184189 124.79409 L 191.0802 119.226715 L 199.113464 131.963013 L 221.662582 135.496643 L 230.331406 150.74971 L 230.331406 169.993988 L 242 171.748077 L 225.730072 209.880737 L 196.596725 232.607819 L 156.786224 242.67482 L 127.322395 242.67482 Z"/>
        <path id="Path-copy-11" fill="#ffeec0" stroke="#1d1d1b" stroke-width="0.127109" stroke-linecap="round" stroke-linejoin="round" d="M 309.227173 193.700943 C 309.227173 219.783691 288.076263 240.90918 261.99353 240.90918 C 235.910797 240.90918 214.759872 219.758255 214.759872 193.700943 C 214.759872 167.643631 235.910797 146.4673 261.99353 146.4673 C 288.076263 146.4673 309.227173 167.643631 309.227173 193.700943 Z"/>
        <path id="Path-copy-13" fill="#ffeec0" stroke="#1d1d1b" stroke-width="0.127109" stroke-linecap="round" stroke-linejoin="round" d="M 325.227173 156.700943 C 325.227173 182.783691 304.076263 203.90918 277.99353 203.90918 C 251.910797 203.90918 230.759872 182.75827 230.759872 156.700943 C 230.759872 130.643631 251.910797 109.4673 277.99353 109.4673 C 304.076263 109.4673 325.227173 130.643631 325.227173 156.700943 Z"/>
        <path id="Path-copy-8" fill="#ffeec0" stroke="none" d="M 81.554878 142.969727 L 80.417847 132.267151 L 97.662865 107.226715 L 154.656738 107.226715 L 197.390274 112.794098 L 253.10498 107.226715 L 268.075928 119.963013 L 310.098846 123.496651 L 326.254211 138.74971 L 326.254211 157.993988 L 348 159.748077 L 317.679077 197.880737 L 263.385681 220.607819 L 189.194153 230.674835 L 134.284851 230.674835 Z"/>
        <path id="Path-copy-7" fill="#ffeec0" stroke="#1d1d1b" stroke-width="0.127109" stroke-linecap="round" stroke-linejoin="round" d="M 47.75988 128.842163 C 47.75988 138.985443 39.523228 147.222092 29.379938 147.222092 C 19.236654 147.222092 11 138.985443 11 128.842163 C 11 118.698868 19.236654 110.462219 29.379938 110.462219 C 39.548645 110.436783 47.75988 118.673447 47.75988 128.842163 Z"/>
        <path id="Path-copy-9" fill="#ffeec0" stroke="#1d1d1b" stroke-width="0.127109" stroke-linecap="round" stroke-linejoin="round" d="M 90.75988 181.842163 C 90.75988 191.985443 82.523224 200.222092 72.379936 200.222092 C 62.236652 200.222092 54 191.985443 54 181.842163 C 54 171.698868 62.236652 163.462219 72.379936 163.462219 C 82.548645 163.436798 90.75988 171.673447 90.75988 181.842163 Z"/>
        <path id="Path-copy-10" fill="#ffeec0" stroke="#1d1d1b" stroke-width="0.127109" stroke-linecap="round" stroke-linejoin="round" d="M 273.759888 153.842163 C 273.759888 163.985443 265.523224 172.222092 255.379944 172.222092 C 245.236649 172.222092 237 163.985443 237 153.842163 C 237 143.698868 245.236649 135.462219 255.379944 135.462219 C 265.548645 135.436798 273.759888 143.673447 273.759888 153.842163 Z"/>
        <path id="Path-copy-15" fill="#ffeec0" stroke="#1d1d1b" stroke-width="0.127109" stroke-linecap="round" stroke-linejoin="round" d="M 211.759872 222.842163 C 211.759872 232.985443 203.523224 241.222092 193.379944 241.222092 C 183.236649 241.222092 175 232.985443 175 222.842163 C 175 212.698868 183.236649 204.462219 193.379944 204.462219 C 203.548645 204.436798 211.759872 212.673447 211.759872 222.842163 Z"/>
        <path id="Path-copy-14" fill="#ffeec0" stroke="#1d1d1b" stroke-width="0.127109" stroke-linecap="round" stroke-linejoin="round" d="M 90.75988 181.842163 C 90.75988 191.985443 82.523224 200.222092 72.379936 200.222092 C 62.236652 200.222092 54 191.985443 54 181.842163 C 54 171.698868 62.236652 163.462219 72.379936 163.462219 C 82.548645 163.436798 90.75988 171.673447 90.75988 181.842163 Z"/>
    </g>
</svg>
