<svg width="3072" height="3072" viewBox="0 0 3072 3072" xmlns="http://www.w3.org/2000/svg" xmlns:xlink="http://www.w3.org/1999/xlink">
    <g id="Group">
        <path id="Path" fill="#ffdd12" stroke="none" d="M 1168.800049 1492.799927 L 1161.600098 1366.5 L 1270.800049 1071 L 1631.700073 1071 L 1902.299927 1136.700073 L 2255.100098 1071 L 2349.899902 1221.299927 L 2616 1263 L 2718.300049 1443 L 2718.300049 1670.099976 L 2856 1690.799927 L 2664 2140.799805 L 2320.200195 2409 L 1850.400024 2527.799805 L 1502.699951 2527.799805 Z"/>
        <path id="path1" fill="none" stroke="#1d1d1b" stroke-width="1.5" stroke-linecap="round" stroke-linejoin="round" d="M 1494.300049 1649.399902 L 2160.299805 1690.799927 L 2273.399902 1649.399902 L 2826.899902 1690.799927"/>
        <path id="path2" fill="#ffdd12" stroke="#1d1d1b" stroke-width="1.5" stroke-linecap="round" stroke-linejoin="round" d="M 1631.700073 1657.799927 L 1631.700073 619.200195 L 1464 214.5 L 1285.5 611.700195 L 1270.800049 1492.799927 L 1327.199951 1687.5 Z"/>
        <path id="path3" fill="#ffdd12" stroke="#1d1d1b" stroke-width="1.5" stroke-linecap="round" stroke-linejoin="round" d="M 892.5 1221 C 892.5 1322.700073 810 1405.200073 708.299988 1405.200073 C 606.599976 1405.200073 524.099976 1322.700073 524.099976 1221 C 524.099976 1119.299927 606.599976 1036.799927 708.299988 1036.799927 C 810 1036.799927 892.5 1119.299927 892.5 1221 Z"/>
        <path id="path4" fill="#ffdd12" stroke="#1d1d1b" stroke-width="1.5" stroke-linecap="round" stroke-linejoin="round" d="M 1049.100098 1492.799927 C 1049.100098 1650.899902 921 1779 762.900024 1779 C 604.800049 1779 476.699982 1650.899902 476.699982 1492.799927 C 476.699982 1334.700073 604.800049 1206.600098 762.900024 1206.600098 C 921 1206.600098 1049.100098 1334.700073 1049.100098 1492.799927 Z"/>
        <path id="path5" fill="#ffdd12" stroke="#1d1d1b" stroke-width="1.5" stroke-linecap="round" stroke-linejoin="round" d="M 693.599976 1562.100098 C 693.599976 1681.799927 596.400024 1779 476.699982 1779 C 357 1779 259.799988 1681.799927 259.799988 1562.100098 C 259.799988 1442.400024 357 1345.200073 476.699982 1345.200073 C 596.699951 1344.900024 693.599976 1442.100098 693.599976 1562.100098 Z"/>
        <path id="path6" fill="none" stroke="#1d1d1b" stroke-width="1.5" stroke-linecap="round" stroke-linejoin="round" d="M 2478 2187.899902 C 2478 2187.899902 2328 2015.399902 2309.699951 1993.5 C 2291.399902 1971.599976 2207.699951 1913.399902 2079.899902 1909.5 C 1952.399902 1905.899902 1529.699951 1881.299927 1529.699951 1881.299927"/>
        <path id="path7" fill="#ffdd12" stroke="#1d1d1b" stroke-width="1.5" stroke-linecap="round" stroke-linejoin="round" d="M 1930.799927 1846.5 C 1930.799927 1846.5 2000.700073 1834.200073 2004 1846.5 C 2007.299927 1858.799927 2040 2001 2040 2001 L 1956 2001 L 1930.5 1964.400024 L 1930.5 1846.5 Z"/>
        <path id="path8" fill="none" stroke="#1d1d1b" stroke-width="1.5" stroke-linecap="round" stroke-linejoin="round" d="M 2273.399902 1649.399902 L 2269.800049 1962.599976 L 2664 1986.599976"/>
        <path id="path9" fill="none" stroke="#1d1d1b" stroke-linecap="round" stroke-linejoin="round" d="M 2160.300049 1690.799927 L 2160.300049 1919.700073"/>
        <path id="path10" fill="none" stroke="#1d1d1b" stroke-width="1.5" stroke-linecap="round" stroke-linejoin="round" d="M 1808.400024 1668.899902 C 1808.400024 1668.899902 1836 1519.5 1960.200073 1519.5 C 2084.399902 1519.5 2112.300049 1647.600098 2105.399902 1687.5"/>
        <path id="path11" fill="none" stroke="#1d1d1b" stroke-width="1.5" stroke-linecap="round" stroke-linejoin="round" d="M 2075.700195 1579.5 L 2075.700195 1439.399902 L 2106.300049 1405.200073 L 2124 1300.799927 L 2255.100098 1071 L 2349.899902 1221.299927 L 2415.600098 1325.399902 L 2415.600098 1446.599976 L 2466.899902 1475.700073 L 2466.899902 1663.799927"/>
        <path id="path12" fill="none" stroke="#1d1d1b" stroke-width="1.5" stroke-linecap="round" stroke-linejoin="round" d="M 2349.899902 1221.299927 L 2616 1263 L 2718.300049 1443 L 2718.300049 1682.700073"/>
        <path id="path13" fill="none" stroke="#1d1d1b" stroke-width="1.5" stroke-linecap="round" stroke-linejoin="round" d="M 2415.600098 1405.200073 L 2718.299805 1443"/>
        <path id="path14" fill="none" stroke="#1d1d1b" stroke-width="1.5" stroke-linecap="round" stroke-linejoin="round" d="M 1902.299927 1532.400024 C 1902.299927 1532.400024 1894.200073 1441.799927 1832.400024 1424.100098 C 1770.299927 1406.400024 1642.799927 1418.400024 1632 1405.200073"/>
        <path id="path15" fill="none" stroke="#1d1d1b" stroke-width="1.5" stroke-linecap="round" stroke-linejoin="round" d="M 1285.5 611.699951 L 1369.199951 557.100098 L 1451.400024 528 L 1538.100098 553.5 L 1631.700073 619.199951"/>
        <path id="path16" fill="none" stroke="#1d1d1b" stroke-width="1.5" stroke-linecap="round" stroke-linejoin="round" d="M 1369.199951 557.100098 L 1374.600098 1532.400024"/>
        <path id="path17" fill="none" stroke="#1d1d1b" stroke-linecap="round" stroke-linejoin="round" d="M 1538.100098 553.5 L 1538.100098 1652.100098"/>
        <path id="path18" fill="none" stroke="#1d1d1b" stroke-width="1.5" stroke-linecap="round" stroke-linejoin="round" d="M 1281.300049 859.799805 L 1371.900024 822.899902 L 1538.100098 822.899902 L 1631.700073 859.799805"/>
        <path id="path19" fill="none" stroke="#1d1d1b" stroke-width="1.5" stroke-linecap="round" stroke-linejoin="round" d="M 1281.300049 1121.400024 L 1371.900024 1084.200073 L 1538.100098 1084.200073 L 1631.700073 1121.400024"/>
        <path id="path20" fill="none" stroke="#1d1d1b" stroke-width="1.5" stroke-linecap="round" stroke-linejoin="round" d="M 1281.300049 1386 L 1371.900024 1349.100098 L 1538.100098 1349.100098 L 1631.700073 1386"/>
        <path id="path21" fill="none" stroke="#1d1d1b" stroke-width="1.5" stroke-linecap="round" stroke-linejoin="round" d="M 1631.700073 1071 L 1902.299927 1136.700073 L 2255.100098 1071"/>
        <path id="path22" fill="none" stroke="#1d1d1b" stroke-width="1.5" stroke-linecap="round" stroke-linejoin="round" d="M 1631.700073 1300.799927 L 1836 1333.799927 L 2124 1300.799927"/>
        <path id="path23" fill="none" stroke="#1d1d1b" stroke-width="1.5" stroke-linecap="round" stroke-linejoin="round" d="M 1902.299927 1136.700073 L 1836 1333.799927 L 1832.400024 1424.099976"/>
        <path id="path24" fill="#1d1d1b" stroke="none" d="M 1313.100098 680.399902 C 1313.100098 680.399902 1319.100098 664.200195 1326.600098 664.200195 C 1334.400024 664.200195 1341 680.399902 1341 680.399902 L 1341 766.200195 C 1341 766.200195 1333.199951 777.300049 1326.900024 778.200195 C 1320.600098 779.100098 1312.800049 766.200195 1312.800049 766.200195 L 1312.800049 680.399902 Z"/>
        <path id="path25" fill="#1d1d1b" stroke="none" d="M 1411.800049 648.899902 C 1411.800049 648.899902 1417.800049 632.699951 1425.300049 632.699951 C 1433.100098 632.699951 1439.699951 648.899902 1439.699951 648.899902 L 1439.699951 735 C 1439.699951 735 1431.899902 746.100098 1425.600098 747 C 1419.300049 747.899902 1411.5 735 1411.5 735 L 1411.5 648.899902 Z"/>
        <path id="path26" fill="#1d1d1b" stroke="none" d="M 2247.600098 1205.400024 C 2247.600098 1205.400024 2255.399902 1186.799927 2265.600098 1186.799927 C 2275.799805 1186.799927 2284.799805 1205.400024 2284.799805 1205.400024 L 2284.799805 1304.100098 C 2284.799805 1304.100098 2274.600098 1316.700073 2266.199951 1317.900024 C 2257.799805 1318.799927 2247.600098 1304.100098 2247.600098 1304.100098 L 2247.600098 1205.400024 Z"/>
        <path id="path27" fill="#1d1d1b" stroke="none" d="M 2236.800049 1396.799927 C 2236.800049 1396.799927 2248.200195 1367.400024 2262.600098 1367.400024 C 2277 1367.400024 2290.200195 1396.799927 2290.200195 1396.799927 L 2290.200195 1552.200073 C 2290.200195 1552.200073 2275.5 1572.299927 2263.5 1573.799927 C 2251.200195 1575.299927 2236.800049 1552.200073 2236.800049 1552.200073 L 2236.800049 1396.799927 Z"/>
        <path id="path28" fill="#1d1d1b" stroke="none" d="M 1474.5 648.899902 C 1474.5 648.899902 1480.5 632.699951 1488 632.699951 C 1495.800049 632.699951 1502.400024 648.899902 1502.400024 648.899902 L 1502.400024 735 C 1502.400024 735 1494.600098 746.100098 1488.300049 747 C 1482 747.899902 1474.199951 735 1474.199951 735 L 1474.199951 648.899902 Z"/>
        <path id="path29" fill="#1d1d1b" stroke="none" d="M 1568.100098 680.399902 C 1568.100098 680.399902 1574.100098 664.200195 1581.600098 664.200195 C 1589.100098 664.200195 1596 680.399902 1596 680.399902 L 1596 766.200195 C 1596 766.200195 1588.200073 777.300049 1581.900024 778.200195 C 1575.600098 779.100098 1567.799927 766.200195 1567.799927 766.200195 L 1567.799927 680.399902 Z"/>
        <path id="path30" fill="#1d1d1b" stroke="none" d="M 1446.165405 452.700195 C 1446.165405 452.700195 1451.623047 436.5 1458.569214 436.5 C 1465.680786 436.5 1471.800049 452.700195 1471.800049 452.700195 L 1471.800049 538.5 C 1471.800049 538.5 1464.688477 549.600098 1458.900024 550.5 C 1453.111572 551.399902 1446 538.5 1446 538.5 L 1446 452.700195 Z"/>
        <path id="path31" fill="#1d1d1b" stroke="none" d="M 1443.900024 935.699951 C 1443.900024 935.699951 1449.900024 928.799805 1457.400024 928.799805 C 1465.199951 928.799805 1471.800049 935.699951 1471.800049 935.699951 L 1471.800049 972.899902 C 1471.800049 972.899902 1464 977.699951 1457.699951 978 C 1451.400024 978.299805 1443.600098 972.899902 1443.600098 972.899902 L 1443.600098 935.699951 Z"/>
        <path id="path32" fill="#1d1d1b" stroke="none" d="M 2196.899902 1262.700073 C 2196.899902 1262.700073 2202.899902 1255.799927 2210.399902 1255.799927 C 2218.199951 1255.799927 2224.799805 1262.700073 2224.799805 1262.700073 L 2224.799805 1299.899902 C 2224.799805 1299.899902 2217 1304.700073 2210.699951 1305 C 2204.399902 1305.299927 2196.600098 1299.899902 2196.600098 1299.899902 L 2196.600098 1262.700073 Z"/>
        <path id="path33" fill="#1d1d1b" stroke="none" d="M 2306.399902 1278.899902 C 2306.399902 1278.899902 2312.399902 1272 2319.899902 1272 C 2327.699951 1272 2334.299805 1278.899902 2334.299805 1278.899902 L 2334.299805 1316.099976 C 2334.299805 1316.099976 2326.5 1320.899902 2320.199951 1321.200073 C 2313.899902 1321.5 2306.100098 1316.099976 2306.100098 1316.099976 L 2306.100098 1278.899902 Z"/>
        <path id="path34" fill="#1d1d1b" stroke="none" d="M 1442.400024 1446.599976 C 1442.400024 1446.599976 1448.400024 1439.700073 1455.900024 1439.700073 C 1463.699951 1439.700073 1470.300049 1446.599976 1470.300049 1446.599976 L 1470.300049 1483.799927 C 1470.300049 1483.799927 1462.5 1488.599976 1456.199951 1488.899902 C 1449.900024 1489.200073 1442.100098 1483.799927 1442.100098 1483.799927 L 1442.100098 1446.599976 Z"/>
        <path id="path35" fill="#1d1d1b" stroke="none" d="M 1314 587.699951 L 1287 617.699951 L 1287 496.799805 L 1314 496.799805 Z"/>
        <path id="path36" fill="#1d1d1b" stroke="none" d="M 1631.100098 612.899902 L 1605 600.600098 L 1605 496.800049 L 1631.100098 496.800049 Z"/>
        <path id="path37" fill="#1d1d1b" stroke="none" d="M 2282.699951 979.5 L 2268.299805 979.5 L 2268.299805 958.799805 C 2268.299805 958.799805 2262 940.199951 2254.799805 940.199951 C 2247.600098 940.199951 2242.199951 958.799805 2242.199951 958.799805 L 2242.199951 979.5 L 2229.299805 979.5 C 2229.299805 979.5 2219.399902 985.799805 2219.399902 993 C 2219.399902 1000.199951 2229.299805 1005.600098 2229.299805 1005.600098 L 2242.199951 1005.600098 L 2242.199951 1057.5 C 2242.199951 1057.5 2249.399902 1072.200073 2255.100098 1071.299927 C 2261.100098 1070.399902 2268 1057.5 2268 1057.5 L 2268 1005.600098 L 2282.399902 1005.600098 C 2282.399902 1005.600098 2290.199951 998.399902 2289.899902 992.399902 C 2289.600098 986.699951 2282.699951 979.5 2282.699951 979.5 Z"/>
        <path id="path38" fill="#1d1d1b" stroke="none" d="M 1489.199951 117.299805 L 1474.800049 117.299805 L 1474.800049 96.600098 C 1474.800049 96.600098 1468.5 78 1461.300049 78 C 1454.099976 78 1448.699951 96.600098 1448.699951 96.600098 L 1448.699951 117.299805 L 1435.800049 117.299805 C 1435.800049 117.299805 1425.899902 123.600098 1425.899902 130.799805 C 1425.899902 138 1435.800049 143.399902 1435.800049 143.399902 L 1448.699951 143.399902 L 1448.699951 195.299805 C 1448.699951 195.299805 1455.899902 210 1461.599976 209.100098 C 1467.599976 208.199951 1474.5 195.299805 1474.5 195.299805 L 1474.5 143.399902 L 1488.899902 143.399902 C 1488.899902 143.399902 1496.699951 136.199951 1496.399902 130.199951 C 1496.099976 124.5 1489.199951 117.299805 1489.199951 117.299805 Z"/>
        <path id="path39" fill="#1d1d1b" stroke="none" d="M 1014.600037 1076.700073 L 1000.200012 1076.700073 L 1000.200012 1056 C 1000.200012 1056 993.899963 1037.400024 986.700012 1037.400024 C 979.5 1037.400024 974.100037 1056 974.100037 1056 L 974.100037 1076.700073 L 961.200012 1076.700073 C 961.200012 1076.700073 951.300049 1083 951.300049 1090.200073 C 951.300049 1097.400024 961.200012 1102.799927 961.200012 1102.799927 L 974.100037 1102.799927 L 974.100037 1154.700073 C 974.100037 1154.700073 980.700012 1158.299927 986.700012 1157.400024 C 992.700012 1156.5 994.200012 1137 994.200012 1137 L 1000.200012 1102.799927 L 1014.600037 1102.799927 C 1014.600037 1102.799927 1022.399963 1095.600098 1022.100037 1089.600098 C 1021.5 1083.600098 1014.600037 1076.700073 1014.600037 1076.700073 Z"/>
        <path id="path40" fill="#ffdd12" stroke="#1d1d1b" stroke-width="1.5" stroke-linecap="round" stroke-linejoin="round" d="M 826.800049 1596.600098 L 957.300049 1633.5 L 1168.800049 1492.799927 L 1161.600098 1366.5 L 1270.800049 1071 L 990 1133.100098 L 826.800049 1405.200073 L 826.800049 1596.600098"/>
        <path id="path41" fill="none" stroke="#1d1d1b" stroke-width="1.5" stroke-linecap="round" stroke-linejoin="round" d="M 826.799988 1405.200073 L 1161.599976 1366.5"/>
        <path id="path42" fill="#ffdd12" stroke="#1d1d1b" stroke-width="1.5" stroke-linecap="round" stroke-linejoin="round" d="M 1538.100098 1809.899902 C 1538.100098 1985.099976 1396.199951 2127 1221 2127 C 1045.800049 2127 903.899963 1985.099976 903.899963 1809.899902 C 903.899963 1634.700073 1045.800049 1492.799927 1221 1492.799927 C 1396.199951 1492.799927 1538.100098 1634.700073 1538.100098 1809.899902 Z"/>
        <path id="path43" fill="#ffdd12" stroke="#1d1d1b" stroke-width="1.5" stroke-linecap="round" stroke-linejoin="round" d="M 1076.400024 1846.5 C 1076.400024 1984.200073 964.5 2096.100098 826.800049 2096.100098 C 689.099976 2096.100098 577.200012 1984.200073 577.200012 1846.5 C 577.200012 1708.5 689.099976 1596.899902 826.800049 1596.899902 C 964.5 1596.899902 1076.400024 1708.5 1076.400024 1846.5 Z"/>
        <path id="path44" fill="#ffdd12" stroke="#1d1d1b" stroke-width="1.5" stroke-linecap="round" stroke-linejoin="round" d="M 1808.400024 2421.899902 C 1808.400024 2729.700195 1558.799927 2979 1251 2979 C 943.200012 2979 693.599976 2729.399902 693.599976 2421.899902 C 693.599976 2114.399902 943.200012 1864.5 1251 1864.5 C 1558.799927 1864.5 1808.400024 2114.399902 1808.400024 2421.899902 Z"/>
    </g>
</svg>
